HIERARCHY
ROOT Hips
{
  OFFSET 263.056 91.6644 -274.608
  CHANNELS 6 Xposition Yposition Zposition Zrotation Xrotation Yrotation
  JOINT LeftUpLeg
  {
    OFFSET 8.64259 1.95398 -2.38835
    CHANNELS 3 Zrotation Xrotation Yrotation
    JOINT LeftLeg
    {
      OFFSET 43.7702 0 0
      CHANNELS 3 Zrotation Xrotation Yrotation
      JOINT LeftFoot
      {
        OFFSET 40.6238 0 0
        CHANNELS 3 Zrotation Xrotation Yrotation
        JOINT LeftToeBase
        {
          OFFSET 12.7242 0 0
          CHANNELS 3 Zrotation Xrotation Yrotation
          End Site
          {
            OFFSET 0 0 0
          }
        }
      }
    }
  }
  JOINT RightUpLeg
  {
    OFFSET -8.2249 1.95398 -2.59336
    CHANNELS 3 Zrotation Xrotation Yrotation
    JOINT RightLeg
    {
      OFFSET 43.5653 0 0
      CHANNELS 3 Zrotation Xrotation Yrotation
      JOINT RightFoot
      {
        OFFSET 40.6238 0 0
        CHANNELS 3 Zrotation Xrotation Yrotation
        JOINT RightToeBase
        {
          OFFSET 12.7242 0 0
          CHANNELS 3 Zrotation Xrotation Yrotation
          End Site
          {
            OFFSET 0 0 0
          }
        }
      }
    }
  }
  JOINT Spine
  {
    OFFSET 0.165834 0.87714 6.61349
    CHANNELS 3 Zrotation Xrotation Yrotation
    JOINT Spine1
    {
      OFFSET 7.38963 1.71661e-005 0
      CHANNELS 3 Zrotation Xrotation Yrotation
      JOINT Spine2
      {
        OFFSET 11.9445 1.14441e-005 0
        CHANNELS 3 Zrotation Xrotation Yrotation
        JOINT Spine3
        {
          OFFSET 14.7254 4.19617e-005 0
          CHANNELS 3 Zrotation Xrotation Yrotation
          JOINT Spine4
          {
            OFFSET 10.9679 0 0
            CHANNELS 3 Zrotation Xrotation Yrotation
            JOINT RightShoulder
            {
              OFFSET 2.46616 -1.6653 3.69651
              CHANNELS 3 Zrotation Xrotation Yrotation
              JOINT RightArm
              {
                OFFSET 13.0012 0 0
                CHANNELS 3 Zrotation Xrotation Yrotation
                JOINT RightForeArm
                {
                  OFFSET 28.7848 1.52588e-005 0
                  CHANNELS 3 Zrotation Xrotation Yrotation
                  JOINT RightHand
                  {
                    OFFSET 26.5688 1.52588e-005 0
                    CHANNELS 3 Zrotation Xrotation Yrotation
                    End Site
                    {
                      OFFSET 0 0 0
                    }
                  }
                }
              }
            }
            JOINT LeftShoulder
            {
              OFFSET 2.38034 -1.29275 -3.7523
              CHANNELS 3 Zrotation Xrotation Yrotation
              JOINT LeftArm
              {
                OFFSET 16.3182 6.10352e-005 0
                CHANNELS 3 Zrotation Xrotation Yrotation
                JOINT LeftForeArm
                {
                  OFFSET 27.0901 0 0
                  CHANNELS 3 Zrotation Xrotation Yrotation
                  JOINT LeftHand
                  {
                    OFFSET 24.5451 1.52588e-005 0
                    CHANNELS 3 Zrotation Xrotation Yrotation
                    End Site
                    {
                      OFFSET 0 0 0
                    }
                  }
                }
              }
            }
            JOINT Neck
            {
              OFFSET 5.0226 -0.0266342 0
              CHANNELS 3 Zrotation Xrotation Yrotation
              JOINT Head
              {
                OFFSET 6.69364 2.86102e-005 0
                CHANNELS 3 Zrotation Xrotation Yrotation
                End Site
                {
                  OFFSET 0 0 0
                }
              }
            }
          }
        }
      }
    }
  }
}
MOTION
Frames:	19
Frame Time:	0.0416667
-70.3361 67.0213 1.89202 52.1359 -78.7149 52.5938 -177.741 40.2067 100.034 -99.682 27.1021 -0.171997 45.7602 -3.39472 9.2307 65.2854 59.1747 28.5876 141.632 65.8087 123.526 -94.0911 19.1153 -1.46644 86.7894 -11.6524 -4.83851 39.0636 0.977049 12.436 1.17979 10.9715 -91.0146 4.94325 1.94001 -2.02171 -6.72795 1.84917 -2.10511 -29.2682 2.45785 -1.34515 -9.25559 2.45785 -1.34515 79.8113 -39.9401 -120.66 1.99291 -3.92379 -11.4892 -7.63659 -13.6989 -47.3636 -19.4346 -1.41255 3.83103 -102.679 -36.4332 53.8705 -35.7019 8.10611 24.8296 2.62823 4.6382 -35.9153 16.6384 0.911068 1.60746 7.63427 -11.1028 5.93647 22.3328 -12.6872 -3.1816 
-70.3003 64.9065 0.677037 56.6525 -80.3926 57.8673 -179.314 40.3029 101.432 -103.487 29.4313 -0.266033 46.3309 -3.20364 10.8315 69.5829 62.546 25.6577 136.82 65.9678 128.455 -96.7558 18.421 -2.03594 86.3507 -11.898 -5.64342 39.6632 1.10547 13.153 1.33304 11.16 -91.0695 4.5689 2.22705 -2.12146 -7.10202 2.13154 -2.21741 -29.6458 2.76158 -1.35394 -9.63313 2.76159 -1.35394 79.7225 -39.9734 -120.788 0.862559 -4.99274 -11.4102 -8.62208 -15.113 -47.1152 -20.8014 -1.65948 4.83919 -102.682 -36.5453 53.9242 -36.1419 8.51542 25.0066 2.81262 5.35781 -36.1638 17.5771 1.06642 2.19946 7.77798 -11.0912 6.35532 22.18 -12.9134 -3.85265 
-70.3884 62.9315 -0.668726 66.1353 -81.4775 68.3452 177.964 40.9104 103.596 -107.444 30.0329 -0.301978 46.3352 -3.3025 10.0027 73.1462 63.2694 21.3063 132.108 65.4721 133.08 -98.8246 19.0352 -2.51489 86.0804 -12.1162 -5.78818 39.6143 1.15062 14.8116 1.47565 11.3909 -91.1814 4.11012 2.47092 -2.32653 -7.56074 2.36616 -2.433 -30.1068 3.05578 -1.47618 -10.0941 3.05578 -1.47617 79.5629 -40.0245 -121.024 -0.429766 -5.58351 -10.5563 -9.76051 -16.1417 -47.7835 -22.5928 -2.293 7.59646 -102.536 -36.4394 54.1065 -36.506 9.03851 25.1481 3.05941 6.1944 -36.4237 17.7639 1.11467 2.41014 8.33037 -11.3384 6.22178 22.2577 -13.1203 -3.74067 
-70.4175 61.0306 -1.78262 73.8587 -82.1104 76.884 176.037 41.8111 105.39 -110.799 31.0608 -0.528078 45.9323 -3.06012 11.0755 71.9469 62.7762 22.4655 126.798 65.3388 138.338 -100.945 19.6625 -3.00744 85.5177 -12.1816 -5.9554 39.5356 1.16245 15.5322 1.59694 11.5675 -91.266 3.75974 2.68271 -2.47907 -7.91104 2.57104 -2.59471 -30.4595 3.30359 -1.55794 -10.4468 3.30359 -1.55794 79.0743 -39.793 -121.941 -1.56749 -6.11657 -9.0341 -9.97284 -15.6296 -48.1233 -23.9215 -2.15027 6.19886 -102.595 -36.7961 54.1988 -36.3816 9.14027 25.0534 2.92923 6.33159 -36.1349 19.1363 1.28339 2.85641 8.66238 -11.5346 6.99242 22.0549 -13.7326 -4.88666 
-70.4781 59.313 -2.84988 84.0907 -82.7547 87.5892 174.674 42.493 106.81 -113.844 31.5903 -0.748103 45.4015 -3.10534 11.1733 67.0502 61.8013 28.6566 122.979 65.1225 142.119 -102.823 18.4199 -3.48256 85.2437 -12.2211 -6.0419 37.6935 0.75805 13.558 1.74937 11.7511 -91.2819 3.39526 2.98455 -2.49446 -8.27491 2.87193 -2.62338 -30.8293 3.59608 -1.48167 -10.8167 3.59609 -1.48166 79.5588 -39.3664 -121.362 -1.4223 -6.43328 -8.5817 -10.0726 -16.0248 -48.0731 -25.1327 -2.41229 7.00748 -102.505 -36.6091 54.2452 -36.2873 9.05822 25.2926 2.47772 5.46919 -36.0648 18.9218 1.31122 3.07596 8.28684 -11.8591 6.28958 22.706 -13.807 -4.44237 
-70.5774 57.805 -3.75938 91.8284 -82.7345 95.8989 172.311 43.2675 108.252 -116.354 31.7947 -0.93057 44.27 -4.12808 10.013 68.0635 62.9144 28.3033 118.913 64.9684 146.271 -104.097 19.2893 -3.93259 83.9302 -11.9531 -6.10871 38.8811 1.00276 14.5237 1.81058 11.8903 -91.3188 3.11815 3.09506 -2.55374 -8.55189 2.97971 -2.68746 -31.1081 3.71928 -1.50492 -11.0955 3.71928 -1.50492 79.6427 -38.638 -121.596 -1.02831 -6.62271 -7.80525 -10.5423 -16.606 -47.6569 -27.6793 -2.70334 7.25674 -102.556 -36.7271 54.2258 -36.3146 8.92382 25.3966 2.33477 5.38243 -35.5361 18.9046 1.33946 3.23202 7.89751 -11.9486 6.1296 23.5509 -13.8807 -4.46384 
-70.7345 56.4807 -4.52536 95.8519 -82.4089 100.317 169.519 44.0566 109.825 -118.463 33.0756 -1.26218 43.5848 -5.0517 9.00653 69.9683 62.6068 25.1583 115.603 64.9072 150.093 -105.34 19.8601 -4.3132 84.279 -12.1634 -6.24117 36.8527 0.600923 12.7926 1.846 12.0189 -91.3421 2.86134 3.15925 -2.58672 -8.80862 3.04237 -2.72326 -31.3659 3.79039 -1.51704 -11.3533 3.7904 -1.51706 79.8813 -38.4282 -121.306 -1.10801 -6.22574 -7.71783 -10.9265 -17.1766 -48.0507 -28.3181 -2.84737 7.65285 -102.405 -36.6565 54.4326 -36.4033 8.9459 25.399 2.30341 5.46136 -35.339 18.6737 1.31724 3.19802 8.1993 -12.1844 6.49376 23.5534 -14.4205 -5.43113 
-70.799 55.3802 -5.20169 99.0239 -82.0364 103.875 166.936 44.8219 111.153 -120.212 33.3394 -1.45733 43.0398 -5.56735 7.7919 66.4846 63.2665 31.0245 112.205 64.9402 153.513 -106.335 20.0896 -4.71344 83.3258 -11.9041 -6.27189 37.0869 0.652292 13.8038 1.87166 12.1089 -91.3847 2.68221 3.1956 -2.66104 -8.98781 3.07543 -2.7991 -31.5451 3.84739 -1.57701 -11.5325 3.8474 -1.577 80.035 -38.1156 -121.209 -0.907055 -6.29806 -7.00603 -10.9918 -16.9487 -48.5228 -29.6357 -2.92829 7.43966 -102.57 -36.7803 54.2308 -36.4895 8.74446 25.7344 1.96178 4.83407 -35.1172 18.9742 1.31961 3.10132 8.01821 -12.2916 6.2951 24.1815 -14.4573 -5.23743 
-70.8038 54.3537 -5.7659 101.369 -81.8418 106.497 164.69 45.6002 112.467 -121.684 34.7913 -1.81082 42.5845 -5.97648 7.99546 64.9126 63.1458 33.2794 108.893 64.9039 156.754 -107.343 20.2105 -5.03482 82.5246 -11.678 -6.31072 37.2454 0.682777 13.8959 1.89719 12.2102 -91.3904 2.47999 3.2466 -2.66181 -9.18991 3.12635 -2.80211 -31.7484 3.89626 -1.56234 -11.7358 3.89627 -1.56236 80.5228 -37.7069 -120.598 -0.35851 -6.30581 -6.93698 -10.789 -16.3611 -48.9833 -29.6894 -2.96072 7.50571 -102.208 -36.7973 54.8263 -36.5889 8.35095 25.8189 2.03746 4.74273 -34.9612 19.1468 1.3353 3.12255 8.59552 -12.3141 6.22903 24.3347 -14.5294 -5.39781 
-70.7607 53.465 -6.23741 105.146 -81.8312 110.556 162.016 45.9156 114.262 -123.015 35.3467 -2.08054 42.9958 -6.88308 4.18811 64.8207 63.482 33.7464 106.603 64.4461 158.85 -107.98 20.5289 -5.30694 82.4076 -11.6223 -6.33472 36.0568 0.463342 14.1801 1.94612 12.3037 -91.3945 2.29377 3.34452 -2.65913 -9.37589 3.2243 -2.80375 -31.9367 3.98884 -1.53025 -11.924 3.98885 -1.53025 80.5539 -37.5842 -120.608 -0.128414 -6.76389 -6.50018 -10.7502 -15.8248 -49.2274 -31.7022 -3.17133 7.51766 -102.394 -36.7865 54.5192 -36.6376 7.90165 26.2865 2.02596 4.50356 -34.6015 19.1062 1.35074 3.21786 8.39436 -12.5466 5.97103 25.0364 -14.7066 -5.33285 
-70.7371 52.6203 -6.64464 108.028 -81.4611 113.661 159.515 46.0433 115.606 -123.57 39.2129 -2.81314 40.964 -9.43121 4.50431 64.6701 63.3614 33.858 104.544 64.3233 160.839 -108.793 20.5235 -5.55426 81.8449 -11.4071 -6.35192 35.7547 0.406783 14.3765 1.93557 12.3835 -91.3896 2.13357 3.32697 -2.64211 -9.53612 3.20751 -2.78599 -32.0966 3.96699 -1.51932 -12.084 3.96699 -1.51931 80.4639 -37.8214 -120.639 -0.0506689 -7.2398 -5.74105 -11.0319 -15.513 -50.8019 -33.6886 -3.45838 7.80103 -102.054 -36.6586 55.006 -36.8639 7.85931 26.6664 1.70026 4.06217 -34.3886 19.3894 1.40037 3.37471 8.78062 -12.4022 5.92596 24.6232 -14.6607 -5.77871 
-70.7757 51.9286 -6.96198 110.545 -81.2702 116.573 157.508 46.2948 117.035 -124.725 38.9046 -2.88857 41.1504 -9.62056 2.57547 62.3729 62.4038 36.4864 103.185 64.1247 162.653 -109.397 20.5207 -5.75919 81.2507 -11.442 -6.40637 36.204 0.487595 12.9751 1.91957 12.4639 -91.3949 1.97246 3.29457 -2.6454 -9.6973 3.17499 -2.78783 -32.2571 3.93708 -1.53222 -12.2444 3.93708 -1.53222 80.7641 -37.5491 -120.27 0.932611 -7.18786 -5.1451 -12.9206 -15.4751 -52.8366 -34.7171 -3.73803 8.44926 -101.979 -36.5759 55.0843 -36.9959 7.51972 26.9714 1.38003 3.47566 -33.5746 19.1883 1.2054 2.42822 8.99023 -12.2942 5.46319 24.9341 -14.4146 -5.52144 
-70.878 51.4108 -7.33419 110.191 -80.8482 116.085 157.014 47.3374 117.573 -124.891 41.0707 -3.26758 37.7802 -11.839 5.42934 66.045 63.8473 32.2629 101.444 64.5289 164.743 -109.75 21.1788 -5.92916 80.4044 -11.1648 -6.41847 36.4772 0.529776 11.5892 1.86334 12.5345 -91.3521 1.82941 3.20018 -2.55762 -9.8404 3.08456 -2.69599 -32.3989 3.82069 -1.47692 -12.3863 3.8207 -1.47693 80.8427 -37.5752 -120.124 1.05963 -7.14835 -4.61383 -14.1374 -15.6201 -53.8239 -35.6367 -3.77418 8.29514 -101.989 -36.4596 55.0074 -36.7069 7.48179 26.9893 0.932446 2.61691 -33.1643 18.4781 1.0868 2.02281 9.10523 -12.3365 4.97199 25.2164 -14.376 -5.56798 
-71.0061 51.0952 -7.62838 110.341 -80.0765 116.027 155.876 47.6247 117.86 -125.193 41.7722 -3.46109 37.6209 -12.0875 5.44282 65.4291 64.4719 33.7887 100.746 64.9154 165.541 -109.88 21.9215 -6.1063 79.9575 -10.9756 -6.40576 36.5185 0.53336 11.0829 1.77727 12.6133 -91.3161 1.66966 3.04368 -2.48389 -10.0004 2.93144 -2.61544 -32.5561 3.64929 -1.45375 -12.5435 3.64929 -1.45376 81.0392 -37.3469 -119.905 1.37387 -7.2297 -4.43504 -14.4026 -15.4923 -54.519 -35.5995 -3.76231 8.2699 -101.896 -36.4594 55.1595 -36.3425 7.54104 26.9948 1.05094 2.78918 -33.2114 18.1398 0.978699 1.53368 8.96757 -12.2197 4.67977 25.2261 -14.2215 -5.66538 
-71.0882 50.8387 -7.9098 110.634 -79.4339 116.413 154.648 47.8157 118.5 -125.436 42.145 -3.57747 37.1893 -12.5436 5.08209 66.2252 65.3659 33.4723 100.246 65.0788 166.102 -109.913 22.388 -6.23934 79.4874 -10.8395 -6.38421 36.5789 0.542131 10.9232 1.765 12.645 -91.3272 1.60618 3.01554 -2.50363 -10.0639 2.90247 -2.63391 -32.6189 3.62839 -1.48108 -12.6063 3.62839 -1.48107 81.3551 -37.3986 -119.34 1.32745 -7.74598 -4.43946 -13.8755 -15.2757 -54.9055 -35.7516 -3.87565 8.54357 -101.712 -36.1693 55.3103 -36.2836 7.80212 27.2643 0.553206 1.9608 -33.6696 18.6598 0.971309 1.34571 8.08895 -12.46 3.65879 25.8719 -14.1206 -5.16615 
-71.0376 50.6982 -8.05932 111.202 -79.1019 116.913 154.326 47.9438 118.478 -125.684 41.7747 -3.53815 36.5874 -12.825 4.89799 67.9502 65.7564 31.3544 99.7833 65.2408 166.388 -110.029 22.6505 -6.30522 78.7676 -10.5873 -6.36124 37.2641 0.650079 10.9299 1.76645 12.6685 -91.3249 1.55906 3.01974 -2.49682 -10.111 2.90698 -2.62729 -32.6662 3.63036 -1.4733 -12.6535 3.63035 -1.47331 81.5389 -37.3693 -119.041 1.11491 -8.15795 -4.07484 -13.3734 -14.3921 -55.8746 -33.5324 -3.76084 8.91768 -101.633 -36.0173 55.3619 -36.2542 7.48172 27.2591 0.525659 1.56312 -33.547 17.5756 0.823978 0.828356 7.62123 -12.417 3.69167 25.9464 -14.2158 -5.68521 
-70.9805 50.54 -8.24771 112.801 -78.4225 118.444 153.538 47.8053 118.468 -125.89 41.9005 -3.61047 36.6185 -13.0105 3.95422 65.0189 64.4127 34.3399 100.356 65.4963 165.71 -110.105 22.8072 -6.39467 78.4242 -10.4757 -6.34164 37.4706 0.673449 10.0982 1.74123 12.737 -91.3498 1.42175 2.96119 -2.54107 -10.2486 2.84653 -2.66893 -32.802 3.5878 -1.53319 -12.7894 3.5878 -1.53319 82.0362 -36.8562 -118.441 1.44841 -8.78627 -4.06861 -13.7833 -14.6418 -55.9875 -33.8115 -3.97347 9.58154 -101.631 -36.0437 55.3783 -36.3687 7.41097 27.3489 0.737247 1.94593 -33.5841 17.959 0.940449 1.37561 7.44011 -12.5882 3.69724 26.3757 -14.4289 -5.79879 
-70.9528 50.3567 -8.34132 113.934 -77.9099 119.757 152.785 47.5644 118.8 -126.17 42.2511 -3.73273 37.0932 -12.8521 3.58648 61.5511 62.9144 38.2481 100.981 65.4185 165.178 -110.147 23.3286 -6.48551 78.7684 -10.6637 -6.38173 37.0756 0.613437 10.2403 1.72831 12.8073 -91.3478 1.28088 2.93749 -2.53183 -10.3895 2.82326 -2.65864 -32.9425 3.56241 -1.53151 -12.9299 3.56243 -1.53151 82.1142 -36.9855 -118.243 1.13274 -9.80642 -4.43993 -15.2472 -15.7761 -55.9312 -35.1272 -4.23704 10.0671 -101.344 -35.9096 55.7816 -36.4111 7.2487 27.5831 0.873525 2.07111 -33.5971 17.7778 0.913563 1.27589 7.28524 -12.5016 2.74048 27.1709 -14.0279 -5.21178 
-70.8482 50.1643 -8.41924 114.96 -76.8166 120.83 152.217 47.2757 118.565 -126.387 42.5937 -3.86576 36.2845 -13.36 3.95405 61.7627 62.8471 37.8553 101.36 65.3548 163.951 -110.438 23.5477 -6.54775 78.8114 -10.6474 -6.3749 37.0124 0.607953 10.6547 1.68405 12.8916 -91.4029 1.11175 2.82992 -2.63552 -10.559 2.71122 -2.75749 -33.1088 3.49099 -1.66289 -13.0961 3.49099 -1.66289 82.1725 -36.6738 -118.295 1.1978 -10.6536 -3.53115 -16.4679 -16.3443 -56.7753 -34.7587 -4.36349 10.7436 -101.752 -35.8451 55.0758 -36.4519 7.26924 28.0407 0.622047 1.64843 -33.5363 17.7084 0.896046 1.19803 7.10427 -12.5474 2.39379 27.2196 -13.9092 -4.85979 
